<?xml version="1.0" encoding="UTF-8" standalone="no" ?>
<!DOCTYPE svg PUBLIC "-//W3C//DTD SVG 1.1//EN" "http://www.w3.org/Graphics/SVG/1.1/DTD/svg11.dtd">
<svg xmlns="http://www.w3.org/2000/svg" xmlns:xlink="http://www.w3.org/1999/xlink" version="1.1" width="500" height="500" viewBox="0 0 500 500" xml:space="preserve">
<desc>Created with Fabric.js 3.6.3</desc>
<defs>
</defs>
<rect x="0" y="0" width="100%" height="100%" fill="#ffffff"></rect>
<g transform="matrix(1.1252369866895318 -4.2418e-16 5.6557e-16 1.1252369866895322 250.8360805181575 221.7634254614636)"  >
<linearGradient id="SVGID_5575" gradientUnits="userSpaceOnUse" gradientTransform="matrix(1 0 0 1 23.950000000000003 25.083)"  x1="0" y1="0" x2="153.311" y2="149.65879714963714">
<stop offset="0%" style="stop-color:rgb(239,65,54);stop-opacity: 1"/>
<stop offset="100%" style="stop-color:rgb(251,176,64);stop-opacity: 1"/>
</linearGradient>
<path style="stroke: none; stroke-width: 1; stroke-dasharray: none; stroke-linecap: butt; stroke-dashoffset: 0; stroke-linejoin: miter; stroke-miterlimit: 4; fill: url(#SVGID_5575); fill-rule: nonzero; opacity: 1;"  transform=" translate(-100.6055, -99.91239857481857)" d="M 177.261 104.674 a 112.076 112.076 0 0 1 -1.321 -16.539 c 0.136 -6.344 0.68 -12.42 0.078 -18.777 c -0.6 -6.375 -1.186 -12.714 -1.577 -19.108 a 46.693 46.693 0 0 1 0.824 -10.63 c -0.191 -1.074 -0.359 -2.154 -0.506 -3.252 a 40.3 40.3 0 0 1 -0.185 -7.537 c 0.014 -0.278 -0.005 -1.2 -0.019 -2.164 c -4.167 -0.488 -8.332 -1.039 -12.5 -1.584 c -2.985 0.224 -5.789 1.139 -8.8 0.482 c -1.528 -0.333 -3.7 0.157 -5.263 -0.063 a 29.959 29.959 0 0 1 -3.39 0.038 c -14.171 0.194 -28.334 -0.173 -42.51 0.1 c -7.3 0.141 -14.591 0.325 -21.881 0.658 c -7.377 0.337 -14.821 1.339 -22.2 1.218 a 163.545 163.545 0 0 1 -18.069 -1.8 c -0.816 0.006 -1.529 -0.007 -1.289 -0.073 c -1.7 0.242 -3.4 0.691 -5.1 0.919 A 52.87 52.87 0 0 1 26.528 27 c -0.121 0.416 -0.255 0.832 -0.406 1.249 c -0.563 1.56 -1.228 3.079 -1.922 4.585 c 0.628 6.26 0.053 12.54 0.321 18.85 c 0.313 7.34 1.17 14.515 1.106 21.883 c -0.013 1.493 -0.058 2.987 0 4.48 c 0.01 0.735 0.062 1.467 0.141 2.2 l 0.049 0.332 c 0.523 3.868 1.446 7.848 1.348 11.77 A 51.913 51.913 0 0 1 25.038 104.4 a 4.237 4.237 0 0 1 -0.371 1.05 a 9.466 9.466 0 0 1 0.15 1.244 c 0.113 1.465 0.122 2.946 0.149 4.414 c 0.123 6.926 -0.777 13.788 -0.849 20.707 c -0.094 9.137 0.27 18.14 -0.167 27.124 a 80.209 80.209 0 0 1 0.893 10.7 c 0 0.223 0 0.382 0 0.514 l 0.012 0.051 c 0.223 0.978 0.509 1.921 0.809 2.877 c 0.066 0.209 0.107 0.357 0.132 0.461 c 0.048 0.1 0.1 0.2 0.155 0.313 c 3.694 -0.427 7.383 -0.917 11.089 -1.336 a 112.954 112.954 0 0 1 28.755 0.693 a 102.357 102.357 0 0 0 22.906 0.5 c 8.4 -0.746 16.46 -1.527 24.878 -0.551 a 196.98 196.98 0 0 0 25.955 1.578 c 8.159 -0.126 16.25 -1.141 24.4 -1.371 c 4.447 -0.126 8.89 -0.071 13.327 0.12 V 156.99 a 105.338 105.338 0 0 1 -0.955 -11.014 a 125.069 125.069 0 0 1 0.955 -15.842 Z" stroke-linecap="round" />
</g>
<g transform="matrix(0.14874599408893927 -3.643e-17 3.643e-17 0.14874599408893927 250.27346202481277 221.76342546146367)"  >
<path style="stroke: none; stroke-width: 0; stroke-dasharray: none; stroke-linecap: butt; stroke-dashoffset: 0; stroke-linejoin: miter; stroke-miterlimit: 4; fill: rgb(255,255,255); fill-rule: evenodd; opacity: 1;"  transform=" translate(-423.3300000000001, -423.33000000000004)" d="M 391.35 681.94 c 0 0 -20.99 -149.61 -140.76 -185.46 c 35.08 -17.49 59.17 -53.71 59.17 -95.56 c 0 -58.95 -47.79 -106.74 -106.73 -106.74 c -58.95 0 -106.74 47.79 -106.74 106.74 c 0 41.85 24.09 78.07 59.17 95.56 c -119.77 35.85 -140.76 185.46 -140.76 185.46 c 76.98 60.84 299.67 60.84 376.65 0 z m -25.71 -480.86 l 64.18 68.2 l 159.23 -147.77 l 15.5 16.66 l -159.13 147.68 l 21.09 22.4 l 203.84 -189.16 l 15.5 16.66 l -220.42 204.55 l -36.69 -38.98 l -44.61 41.41 l -116.36 -123.63 l 16.57 -15.59 l 100.87 107.17 l 27.93 -25.93 l -64.07 -68.08 l 16.57 -15.59 z m 277.99 93.1 c 58.95 0 106.74 47.79 106.74 106.74 c 0 41.85 -24.09 78.07 -59.17 95.56 c 119.77 35.85 140.76 185.46 140.76 185.46 c -76.98 60.84 -299.67 60.84 -376.65 0 c 0 0 20.99 -149.61 140.76 -185.46 c -35.08 -17.49 -59.17 -53.71 -59.17 -95.56 c 0 -58.95 47.79 -106.74 106.73 -106.74 z" stroke-linecap="round" />
</g>
</svg>