<svg width="1206" height="112" viewBox="0 0 1206 112" fill="none" xmlns="http://www.w3.org/2000/svg">
<path d="M1203.8 61.3008C1206.73 58.3718 1206.73 53.6231 1203.8 50.6942L1156.07 2.96445C1153.14 0.0355147 1148.4 0.0355143 1145.47 2.96445C1142.54 5.89338 1142.54 10.6421 1145.47 13.571L1187.89 55.9975L1145.47 98.4239C1142.54 101.353 1142.54 106.102 1145.47 109.03C1148.4 111.959 1153.14 111.959 1156.07 109.03L1203.8 61.3008ZM2.69666 50.6956C-0.232178 53.6246 -0.232178 58.3733 2.69665 61.3022L50.4264 109.032C53.3553 111.961 58.1041 111.961 61.033 109.032C63.9619 106.103 63.9619 101.354 61.033 98.4253L18.6066 55.9989L61.033 13.5725C63.9619 10.6436 63.9619 5.89484 61.033 2.96591C58.1041 0.0369792 53.3554 0.0369787 50.4264 2.96591L2.69666 50.6956ZM1198.5 48.4975L1190 48.4975L1190 63.4975L1198.5 63.4975L1198.5 48.4975ZM8 63.4989L16.5 63.4989L16.5 48.4989L8 48.4989L8 63.4989Z" fill="#5E64FF" fill-opacity="0.4"/>
</svg>
