<?xml version="1.0" encoding="UTF-8" standalone="no" ?>
<!DOCTYPE svg PUBLIC "-//W3C//DTD SVG 1.1//EN" "http://www.w3.org/Graphics/SVG/1.1/DTD/svg11.dtd">
<svg xmlns="http://www.w3.org/2000/svg" xmlns:xlink="http://www.w3.org/1999/xlink" version="1.1" width="500" height="500" viewBox="0 0 500 500" xml:space="preserve">
<desc>Created with Fabric.js 3.6.3</desc>
<defs>
</defs>
<g transform="matrix(1 0 0 1 261.7410000000001 329.71000000000004)" style=""  ><path fill="#374140" opacity="1" d="M-102.24 15.08L-102.24-16.12L-97.25-16.12L-87.12-1.15L-76.94-16.12L-72.00-16.12L-72.00 15.08L-75.55 15.08L-75.55-2.63L-75.46-12.19L-75.89-12.19L-86.59 3.46L-87.89 3.46L-98.40-12.19L-98.78-12.19L-98.74-2.63L-98.74 15.08L-102.24 15.08Z"/><path fill="#374140" opacity="1" d="M-65.76 15.08L-65.76-8.92L-62.30-8.92L-62.30 15.08L-65.76 15.08ZM-66.02-18.35Q-65.28-19.15-64.03-19.15Q-62.78-19.15-62.04-18.35Q-61.30-17.56-61.30-16.41L-61.30-16.41Q-61.30-15.31-62.06-14.49Q-62.83-13.67-64.03-13.67Q-65.23-13.67-66.00-14.49Q-66.77-15.31-66.77-16.41L-66.77-16.41Q-66.77-17.56-66.02-18.35Z"/><path fill="#374140" opacity="1" d="M-56.06 15.08L-56.06-8.92L-53.18-8.92L-52.80-4.60Q-49.63-9.40-43.10-9.40L-43.10-9.40Q-38.26-9.40-35.66-6.71Q-33.07-4.03-33.07 1.06L-33.07 1.06L-33.07 15.08L-36.53 15.08L-36.53 1.01Q-36.53-6.43-43.10-6.43L-43.10-6.43Q-46.42-6.43-48.67-5.13Q-50.93-3.83-52.61-1.10L-52.61-1.10L-52.61 15.08L-56.06 15.08Z"/><path fill="#374140" opacity="1" d="M-7.39-7.00L-7.39-19.96L-3.94-19.96L-3.94 14.07Q-9.12 15.56-15.79 15.56L-15.79 15.56Q-21.60 15.56-24.94 12.39Q-28.27 9.22-28.27 3.13L-28.27 3.13Q-28.27-2.44-24.65-5.92Q-21.02-9.40-15.46-9.40L-15.46-9.40Q-10.94-9.40-7.39-7.00L-7.39-7.00ZM-7.39 11.57L-7.39 11.57L-7.39-3.50Q-10.85-6.43-15.07-6.43L-15.07-6.43Q-19.20-6.43-21.96-3.93Q-24.72-1.43-24.72 3.08L-24.72 3.08Q-24.72 7.78-22.01 10.13Q-19.30 12.49-14.78 12.49L-14.78 12.49Q-10.56 12.49-7.39 11.57Z"/><path fill="#374140" opacity="1" d="M10.70-13.05L1.10-13.05L1.10-16.12L23.90-16.12L23.90-13.05L14.30-13.05L14.30 15.08L10.70 15.08L10.70-13.05Z"/><path fill="#374140" opacity="1" d="M48.29 3.85L48.29 3.85L28.13 3.85Q28.37 8.17 31.18 10.35Q33.98 12.53 38.16 12.53L38.16 12.53Q43.15 12.53 46.51 10.76L46.51 10.76L47.52 13.78Q43.63 15.56 37.97 15.56L37.97 15.56Q31.58 15.56 28.10 12.22Q24.62 8.89 24.62 3.13L24.62 3.13Q24.62-2.44 28.32-5.92Q32.02-9.40 37.63-9.40L37.63-9.40Q43.10-9.40 45.89-6.71Q48.67-4.03 48.67 0.44L48.67 0.44Q48.67 2.31 48.29 3.85ZM28.18 0.92L28.18 0.92L45.36 0.92Q45.36-3.02 43.42-4.72Q41.47-6.43 37.25-6.43L37.25-6.43Q33.79-6.43 31.18-4.48Q28.56-2.54 28.18 0.92Z"/><path fill="#374140" opacity="1" d="M73.97-7.82L73.97-7.82L72.43-5.08Q69.70-6.43 65.81-6.43L65.81-6.43Q60.96-6.43 58.25-3.95Q55.54-1.48 55.54 3.13L55.54 3.13Q55.54 7.30 58.27 9.89Q61.01 12.49 65.09 12.49L65.09 12.49Q69.70 12.49 73.15 10.76L73.15 10.76L74.30 13.59Q70.32 15.56 64.85 15.56L64.85 15.56Q58.99 15.56 55.51 12.08Q52.03 8.60 52.03 3.22L52.03 3.22Q52.03-2.35 55.87-5.87Q59.71-9.40 65.52-9.40L65.52-9.40Q70.66-9.40 73.97-7.82Z"/><path fill="#374140" opacity="1" d="M79.34 15.08L79.34-19.96L82.80-19.96L82.80-4.89Q86.11-9.40 92.06-9.40L92.06-9.40Q96.91-9.40 99.58-6.71Q102.24-4.03 102.24 1.06L102.24 1.06L102.24 15.08L98.78 15.08L98.78 1.01Q98.78-2.59 97.08-4.51Q95.38-6.43 92.06-6.43L92.06-6.43Q88.85-6.43 86.71-5.15Q84.58-3.88 82.80-1.10L82.80-1.10L82.80 15.08L79.34 15.08Z"/></g><g transform="matrix(2.126235294117647 0 0 2.126235294117647 261.49100000000004 222.292)"  >
<path style="stroke: none; stroke-width: 0; stroke-dasharray: none; stroke-linecap: butt; stroke-dashoffset: 0; stroke-linejoin: miter; stroke-miterlimit: 4; fill: rgb(55,65,64); fill-rule: nonzero; opacity: 1;"  transform=" translate(-450, -810)" d="M 450 788 C 446.686292 788 444 785.313708 444 782 C 444 778.686292 446.686292 776 450 776 C 453.313708 776 456 778.686292 456 782 C 456 785.313708 453.313708 788 450 788 Z M 433 798 C 429.686292 798 427 795.313708 427 792 C 427 788.686292 429.686292 786 433 786 C 436.313708 786 439 788.686292 439 792 C 439 795.313708 436.313708 798 433 798 Z M 467 798 C 463.686292 798 461 795.313708 461 792 C 461 788.686292 463.686292 786 467 786 C 470.313708 786 473 788.686292 473 792 C 473 795.313708 470.313708 798 467 798 Z M 477 818 C 473.686292 818 471 815.313708 471 812 C 471 808.686292 473.686292 806 477 806 C 480.313708 806 483 808.686292 483 812 C 483 815.313708 480.313708 818 477 818 Z M 423 818 C 419.686292 818 417 815.313708 417 812 C 417 808.686292 419.686292 806 423 806 C 426.313708 806 429 808.686292 429 812 C 429 815.313708 426.313708 818 423 818 Z M 452 790.776984 L 452 842 C 452 843.104569 451.104569 844 450 844 C 448.895431 844 448 843.104569 448 842 L 448 790.776984 C 448.643223 790.922939 449.312612 791 450 791 C 450.687388 791 451.356777 790.922939 452 790.776984 Z M 431 800.776984 C 431.643223 800.922939 432.312612 801 433 801 C 433.687388 801 434.356777 800.922939 435 800.776984 L 435 804.24853 L 441.505153 811.682991 C 441.824164 812.047574 442 812.515554 442 813 L 442 842 C 442 843.104569 441.104569 844 440 844 C 438.895431 844 438 843.104569 438 842 L 438 813.75147 L 431.494847 806.317009 C 431.175836 805.952426 431 805.484446 431 805 L 431 800.776984 Z M 465 800.776984 C 465.643223 800.922939 466.312612 801 467 801 C 467.687388 801 468.356777 800.922939 469 800.776984 L 469 805 C 469 805.484446 468.824164 805.952426 468.505153 806.317009 L 462 813.75147 L 462 842 C 462 843.104569 461.104569 844 460 844 C 458.895431 844 458 843.104569 458 842 L 458 813 C 458 812.515554 458.175836 812.047574 458.494847 811.682991 L 465 804.24853 L 465 800.776984 Z M 421 820.776984 C 421.643223 820.922939 422.312612 821 423 821 C 423.687388 821 424.356777 820.922939 425 820.776984 L 425 824.24853 L 431.505153 831.682991 C 431.824164 832.047574 432 832.515554 432 833 L 432 842 C 432 843.104569 431.104569 844 430 844 C 428.895431 844 428 843.104569 428 842 L 428 833.75147 L 421.494847 826.317009 C 421.175836 825.952426 421 825.484446 421 825 L 421 820.776984 Z M 475 820.776984 C 475.643223 820.922939 476.312612 821 477 821 C 477.687388 821 478.356777 820.922939 479 820.776984 L 479 825 C 479 825.484446 478.824164 825.952426 478.505153 826.317009 L 472 833.75147 L 472 842 C 472 843.104569 471.104569 844 470 844 C 468.895431 844 468 843.104569 468 842 L 468 833 C 468 832.515554 468.175836 832.047574 468.494847 831.682991 L 475 824.24853 L 475 820.776984 Z" stroke-linecap="round" />
</g>
</svg>