<?xml version="1.0" encoding="UTF-8" standalone="no" ?>
<!DOCTYPE svg PUBLIC "-//W3C//DTD SVG 1.1//EN" "http://www.w3.org/Graphics/SVG/1.1/DTD/svg11.dtd">
<svg xmlns="http://www.w3.org/2000/svg" xmlns:xlink="http://www.w3.org/1999/xlink" version="1.1" width="500" height="500" viewBox="0 0 500 500" xml:space="preserve">
<desc>Created with Fabric.js 3.6.3</desc>
<defs>
</defs>
<rect x="0" y="0" width="100%" height="100%" fill="#ffffff"></rect>
<g transform="matrix(1.1252369866895318 -4.2418e-16 5.6557e-16 1.1252369866895322 250.8360805181575 221.7634254614636)"  >
<linearGradient id="SVGID_3914" gradientUnits="userSpaceOnUse" gradientTransform="matrix(1 0 0 1 23.950000000000003 25.083)"  x1="0" y1="0" x2="153.311" y2="149.65879714963714">
<stop offset="0%" style="stop-color:rgb(239,65,54);stop-opacity: 1"/>
<stop offset="100%" style="stop-color:rgb(251,176,64);stop-opacity: 1"/>
</linearGradient>
<path style="stroke: none; stroke-width: 1; stroke-dasharray: none; stroke-linecap: butt; stroke-dashoffset: 0; stroke-linejoin: miter; stroke-miterlimit: 4; fill: url(#SVGID_3914); fill-rule: nonzero; opacity: 1;"  transform=" translate(-100.6055, -99.91239857481857)" d="M 177.261 104.674 a 112.076 112.076 0 0 1 -1.321 -16.539 c 0.136 -6.344 0.68 -12.42 0.078 -18.777 c -0.6 -6.375 -1.186 -12.714 -1.577 -19.108 a 46.693 46.693 0 0 1 0.824 -10.63 c -0.191 -1.074 -0.359 -2.154 -0.506 -3.252 a 40.3 40.3 0 0 1 -0.185 -7.537 c 0.014 -0.278 -0.005 -1.2 -0.019 -2.164 c -4.167 -0.488 -8.332 -1.039 -12.5 -1.584 c -2.985 0.224 -5.789 1.139 -8.8 0.482 c -1.528 -0.333 -3.7 0.157 -5.263 -0.063 a 29.959 29.959 0 0 1 -3.39 0.038 c -14.171 0.194 -28.334 -0.173 -42.51 0.1 c -7.3 0.141 -14.591 0.325 -21.881 0.658 c -7.377 0.337 -14.821 1.339 -22.2 1.218 a 163.545 163.545 0 0 1 -18.069 -1.8 c -0.816 0.006 -1.529 -0.007 -1.289 -0.073 c -1.7 0.242 -3.4 0.691 -5.1 0.919 A 52.87 52.87 0 0 1 26.528 27 c -0.121 0.416 -0.255 0.832 -0.406 1.249 c -0.563 1.56 -1.228 3.079 -1.922 4.585 c 0.628 6.26 0.053 12.54 0.321 18.85 c 0.313 7.34 1.17 14.515 1.106 21.883 c -0.013 1.493 -0.058 2.987 0 4.48 c 0.01 0.735 0.062 1.467 0.141 2.2 l 0.049 0.332 c 0.523 3.868 1.446 7.848 1.348 11.77 A 51.913 51.913 0 0 1 25.038 104.4 a 4.237 4.237 0 0 1 -0.371 1.05 a 9.466 9.466 0 0 1 0.15 1.244 c 0.113 1.465 0.122 2.946 0.149 4.414 c 0.123 6.926 -0.777 13.788 -0.849 20.707 c -0.094 9.137 0.27 18.14 -0.167 27.124 a 80.209 80.209 0 0 1 0.893 10.7 c 0 0.223 0 0.382 0 0.514 l 0.012 0.051 c 0.223 0.978 0.509 1.921 0.809 2.877 c 0.066 0.209 0.107 0.357 0.132 0.461 c 0.048 0.1 0.1 0.2 0.155 0.313 c 3.694 -0.427 7.383 -0.917 11.089 -1.336 a 112.954 112.954 0 0 1 28.755 0.693 a 102.357 102.357 0 0 0 22.906 0.5 c 8.4 -0.746 16.46 -1.527 24.878 -0.551 a 196.98 196.98 0 0 0 25.955 1.578 c 8.159 -0.126 16.25 -1.141 24.4 -1.371 c 4.447 -0.126 8.89 -0.071 13.327 0.12 V 156.99 a 105.338 105.338 0 0 1 -0.955 -11.014 a 125.069 125.069 0 0 1 0.955 -15.842 Z" stroke-linecap="round" />
</g>
<g transform="matrix(0.14874599408893927 -3.643e-17 3.643e-17 0.14874599408893927 250.27346202481277 221.76342546146367)"  >
<path style="stroke: none; stroke-width: 0; stroke-dasharray: none; stroke-linecap: butt; stroke-dashoffset: 0; stroke-linejoin: miter; stroke-miterlimit: 4; fill: rgb(255,255,255); fill-rule: evenodd; opacity: 1;"  transform=" translate(-423.3300000000001, -423.33000000000004)" d="M 391.35 681.94 c 0 0 -20.99 -149.61 -140.76 -185.46 c 35.08 -17.49 59.17 -53.71 59.17 -95.56 c 0 -58.95 -47.79 -106.74 -106.73 -106.74 c -58.95 0 -106.74 47.79 -106.74 106.74 c 0 41.85 24.09 78.07 59.17 95.56 c -119.77 35.85 -140.76 185.46 -140.76 185.46 c 76.98 60.84 299.67 60.84 376.65 0 z m -25.71 -480.86 l 64.18 68.2 l 159.23 -147.77 l 15.5 16.66 l -159.13 147.68 l 21.09 22.4 l 203.84 -189.16 l 15.5 16.66 l -220.42 204.55 l -36.69 -38.98 l -44.61 41.41 l -116.36 -123.63 l 16.57 -15.59 l 100.87 107.17 l 27.93 -25.93 l -64.07 -68.08 l 16.57 -15.59 z m 277.99 93.1 c 58.95 0 106.74 47.79 106.74 106.74 c 0 41.85 -24.09 78.07 -59.17 95.56 c 119.77 35.85 140.76 185.46 140.76 185.46 c -76.98 60.84 -299.67 60.84 -376.65 0 c 0 0 20.99 -149.61 140.76 -185.46 c -35.08 -17.49 -59.17 -53.71 -59.17 -95.56 c 0 -58.95 47.79 -106.74 106.73 -106.74 z" stroke-linecap="round" />
</g>
<g transform="matrix(1 -2.7756e-16 2.7756e-16 1 250.25 337.3738974905057)" style=""  ><path fill="#FF8C00" opacity="1" d="M-57.93 2.09L-57.93 17.24Q-57.93 19.80-58.69 21.74Q-59.45 23.68-61.15 24.98Q-62.86 26.29-65.58 26.97Q-68.30 27.66-72.28 27.66L-72.28 27.66Q-73.65 27.66-75.14 27.59Q-76.64 27.52-78.17 27.35Q-79.71 27.19-81.16 26.97Q-82.60 26.76-83.83 26.48L-83.83 26.48L-83.83 19.37Q-82.60 19.75-81.16 20.01Q-79.71 20.27-78.22 20.44Q-76.73 20.60-75.26 20.70Q-73.79 20.79-72.52 20.79L-72.52 20.79Q-70.01 20.79-68.59 20.49Q-67.17 20.18-66.48 19.61Q-65.79 19.04-65.65 18.21Q-65.51 17.38-65.51 16.30L-65.51 16.30L-65.51 14.73Q-67.17 15.25-68.99 15.54Q-70.81 15.82-72.90 15.82L-72.90 15.82Q-76.87 15.82-79.48 14.90Q-82.08 13.97-83.64 12.36Q-85.21 10.76-85.82 8.60Q-86.44 6.45-86.44 3.98L-86.44 3.98L-86.44 2.09Q-86.44-0.37-85.82-2.53Q-85.21-4.68-83.64-6.29Q-82.08-7.90-79.45-8.82Q-76.83-9.75-72.80-9.75L-72.80-9.75L-71.47-9.75Q-67.50-9.75-64.89-8.82Q-62.29-7.90-60.73-6.29Q-59.16-4.68-58.55-2.53Q-57.93-0.37-57.93 2.09L-57.93 2.09ZM-72.47 8.96L-72.47 8.96Q-68.73 8.96-65.51 7.96L-65.51 7.96L-65.51 3.04Q-65.51 1.90-65.60 0.81Q-65.70-0.28-66.34-1.08Q-66.98-1.89-68.33-2.38Q-69.68-2.88-72.14-2.88L-72.14-2.88Q-74.65-2.88-76.02-2.38Q-77.39-1.89-78.03-1.08Q-78.67-0.28-78.77 0.81Q-78.86 1.90-78.86 3.04L-78.86 3.04Q-78.86 4.17-78.77 5.26Q-78.67 6.35-78.06 7.16Q-77.44 7.96-76.16 8.46Q-74.88 8.96-72.47 8.96Z"/><path fill="#FF8C00" opacity="1" d="M-49.08-8.80L-50.97-8.80L-50.97 14.87L-43.40 14.87L-43.40-5.49L-49.08-8.80ZM-51.45-16.52L-51.45-17.09Q-51.45-18.55-50.59-19.60Q-49.74-20.64-47.37-20.64L-47.37-20.64L-46.99-20.64Q-44.63-20.64-43.78-19.60Q-42.92-18.55-42.92-17.09L-42.92-17.09L-42.92-16.52Q-42.92-15.05-43.78-14.01Q-44.63-12.97-46.99-12.97L-46.99-12.97L-47.37-12.97Q-49.74-12.97-50.59-14.01Q-51.45-15.05-51.45-16.52L-51.45-16.52Z"/><path fill="#FF8C00" opacity="1" d="M-8.69 2.09L-8.69 17.24Q-8.69 19.80-9.45 21.74Q-10.20 23.68-11.91 24.98Q-13.61 26.29-16.34 26.97Q-19.06 27.66-23.04 27.66L-23.04 27.66Q-24.41 27.66-25.90 27.59Q-27.39 27.52-28.93 27.35Q-30.47 27.19-31.91 26.97Q-33.36 26.76-34.59 26.48L-34.59 26.48L-34.59 19.37Q-33.36 19.75-31.91 20.01Q-30.47 20.27-28.98 20.44Q-27.49 20.60-26.02 20.70Q-24.55 20.79-23.27 20.79L-23.27 20.79Q-20.76 20.79-19.34 20.49Q-17.92 20.18-17.24 19.61Q-16.55 19.04-16.41 18.21Q-16.26 17.38-16.26 16.30L-16.26 16.30L-16.26 14.73Q-17.92 15.25-19.74 15.54Q-21.57 15.82-23.65 15.82L-23.65 15.82Q-27.63 15.82-30.23 14.90Q-32.84 13.97-34.40 12.36Q-35.96 10.76-36.58 8.60Q-37.19 6.45-37.19 3.98L-37.19 3.98L-37.19 2.09Q-37.19-0.37-36.58-2.53Q-35.96-4.68-34.40-6.29Q-32.84-7.90-30.21-8.82Q-27.58-9.75-23.56-9.75L-23.56-9.75L-22.23-9.75Q-18.25-9.75-15.65-8.82Q-13.04-7.90-11.48-6.29Q-9.92-4.68-9.30-2.53Q-8.69-0.37-8.69 2.09L-8.69 2.09ZM-23.23 8.96L-23.23 8.96Q-19.48 8.96-16.26 7.96L-16.26 7.96L-16.26 3.04Q-16.26 1.90-16.36 0.81Q-16.45-0.28-17.09-1.08Q-17.73-1.89-19.08-2.38Q-20.43-2.88-22.89-2.88L-22.89-2.88Q-25.40-2.88-26.78-2.38Q-28.15-1.89-28.79-1.08Q-29.43-0.28-29.52 0.81Q-29.62 1.90-29.62 3.04L-29.62 3.04Q-29.62 4.17-29.52 5.26Q-29.43 6.35-28.81 7.16Q-28.20 7.96-26.92 8.46Q-25.64 8.96-23.23 8.96Z"/><path fill="#FF8C00" opacity="1" d="M-2.01-20.64L-0.12-20.64L5.56-17.32L5.56 14.87L-2.01 14.87L-2.01-20.64Z"/><path fill="#FF8C00" opacity="1" d="M14.09-8.80L12.19-8.80L12.19 14.87L19.77 14.87L19.77-5.49L14.09-8.80ZM11.72-16.52L11.72-17.09Q11.72-18.55 12.57-19.60Q13.42-20.64 15.79-20.64L15.79-20.64L16.17-20.64Q18.54-20.64 19.39-19.60Q20.24-18.55 20.24-17.09L20.24-17.09L20.24-16.52Q20.24-15.05 19.39-14.01Q18.54-12.97 16.17-12.97L16.17-12.97L15.79-12.97Q13.42-12.97 12.57-14.01Q11.72-15.05 11.72-16.52L11.72-16.52Z"/><path fill="#FF8C00" opacity="1" d="M26.16-8.80L28.05-8.80L30.61-7.29Q32.88-8.52 35.44-9.13Q38.00-9.75 41.12-9.75L41.12-9.75Q45.10-9.75 47.71-8.82Q50.31-7.90 51.87-6.29Q53.43-4.68 54.05-2.53Q54.67-0.37 54.67 2.09L54.67 2.09L54.67 14.87L47.09 14.87L47.09 3.04Q47.09 1.90 46.99 0.81Q46.90-0.28 46.28-1.08Q45.67-1.89 44.39-2.38Q43.11-2.88 40.70-2.88L40.70-2.88Q38.71-2.88 37.00-2.62Q35.30-2.36 33.74-1.84L33.74-1.84L33.74 14.87L26.16 14.87L26.16-8.80Z"/><path fill="#FF8C00" opacity="1" d="M88.09 14.87L80.80 14.87L75.50 6.54L67.92 6.54L67.92 14.87L60.35 14.87L60.35-20.64L62.24-20.64L67.92-17.32L67.92-0.47L75.50-0.47L80.80-8.80L88.09-8.80L88.09-6.91L81.80 3.04L88.09 12.98L88.09 14.87Z"/></g></svg>